<svg xmlns="http://www.w3.org/2000/svg" width="30" height="30" viewBox="0 0 30 30">
    <g fill="none" fill-rule="evenodd">
        <path d="M-2-2h34v34H-2z"/>
        <path fill="#626F77" d="M23.5 23.5a2.824 2.824 0 0 0-2.833 2.833A2.833 2.833 0 1 0 23.5 23.5zM.833.833v2.834h2.834l5.1 10.752L6.84 17.89c-.213.397-.34.864-.34 1.36a2.833 2.833 0 0 0 2.833 2.833h17V19.25H9.928a.354.354 0 0 1-.354-.354c0-.071.014-.128.043-.17l1.275-2.31h10.554a2.848 2.848 0 0 0 2.479-1.459l5.072-9.165c.099-.227.17-.468.17-.709 0-.782-.635-1.416-1.417-1.416H6.797L5.466.833H.833zm8.5 22.667A2.824 2.824 0 0 0 6.5 26.333 2.833 2.833 0 1 0 9.333 23.5z"/>
    </g>
</svg>
