<svg xmlns="http://www.w3.org/2000/svg" width="167" height="35" viewBox="0 0 167 35">
    <g fill="none" fill-rule="evenodd">
        <path fill="#FFF" fill-rule="nonzero" d="M18.333 24.447v9.095h-1.6v-8.734c0-1.05-.514-1.947-1.46-2.53-.467-.292-1.074-.443-1.786-.443-1.331 0-2.662.513-3.386 1.026l-.094.058.024.117c.128.653.268 1.516.268 2.437l.012 8.07H8.676V24.61c0-1.737-1.541-2.95-3.748-2.95-.83 0-1.705.175-2.534.525l-.105.046v11.311H.654v-8.687c0-.198 0-.396.012-.606.011-1.143.023-2.333-.374-3.09 1.261-.549 3.06-.91 4.636-.91 1.296 0 3.047.233 4.098 1.306l.105.105.117-.082c1.215-.816 2.663-1.27 4.099-1.27 1.576 0 3 .536 3.923 1.457.713.723 1.075 1.644 1.063 2.682zm9.447-4.198c3.631 0 6.574 3.008 6.574 6.693 0 3.697-2.943 6.705-6.574 6.705-3.62 0-6.575-3.008-6.575-6.705 0-3.685 2.955-6.693 6.575-6.693zm.003 11.906c2.723 0 4.94-2.336 4.94-5.208 0-2.871-2.216-5.207-4.94-5.207-2.723 0-4.938 2.336-4.938 5.207 0 2.872 2.215 5.208 4.938 5.208zm15.69-11.795c1.115 0 2.216.29 3.181.842l.262.149v-5.324h1.56v16.1l.246.67c-1.738.713-3.148.846-5.25.846-3.597 0-6.524-2.98-6.524-6.642 0-3.662 2.927-6.641 6.524-6.641zm.076 11.809c1.34 0 2.406-.166 3.26-.506l.11-.045v-8.594l-.072-.052c-.996-.736-2.194-1.14-3.373-1.14-2.704 0-4.902 2.318-4.902 5.167 0 2.851 2.198 5.17 4.9 5.17h.077zm16.33-9.296c-.735-.747-1.914-1.155-3.304-1.155-.91 0-1.88.175-2.779.502l-.117.046v11.335h-1.564V22.08l-.42-1.038c1.61-.513 3.222-.793 4.693-.793 1.985 0 5.407.525 5.92 4.011.047.315.047.595.047.91v8.43h-1.553v-8.209c.012-1.037-.292-1.889-.922-2.518zm12.763 9.321l-.24.2c-.901.739-2.07 1.146-3.293 1.146-2.687 0-4.874-1.956-4.874-4.36 0-2.404 2.187-4.36 4.874-4.36 1.216 0 2.38.402 3.278 1.133l.258.21.027-.33c.118-1.435-.144-2.511-.779-3.2-.522-.566-1.271-.853-2.225-.853-1.106 0-2.446.403-3.62 1.086l-.643-1.322a7.268 7.268 0 0 1 4.114-1.29c1.46 0 2.726.475 3.565 1.34.837.861 1.24 2.063 1.196 3.57-.023.833-.048 1.588-.072 2.347-.024.713-.046 1.428-.07 2.22.031 1.069.093 2.293.43 3.396l-1.627.477c-.142-.367-.208-.758-.256-1.1l-.043-.31zm-3.35-.043c1.917 0 3.476-1.333 3.476-2.971 0-1.638-1.56-2.971-3.476-2.971-1.919 0-3.478 1.333-3.478 2.971 0 1.638 1.56 2.971 3.478 2.971zm20.082 2.475l-6.755-8.024v7.333h-3.284V14.624h3.284v7.122L88.979 14l2.616 1.898-6.758 8.171 7.17 8.463-2.633 2.094zm34.84-.33c-2.793 0-4.668-2.026-4.668-5.041v-6.377h-2.116v-2.97h2.116v-3.995h3.085v3.995h4.456v2.97h-4.456v6.247c0 1.313.656 2.098 1.756 2.098.507 0 .933-.167 1.734-1.046l.453-.498 1.927 2.335-.354.374c-1.28 1.355-2.422 1.909-3.934 1.909zm-13.168 0c-1.875 0-3.331-.502-5.024-1.734l-.462-.336 1.712-2.473.473.297c1.459.915 2.323 1.224 3.424 1.224 1.386 0 2.354-.534 2.354-1.298 0-.452 0-1.015-2.63-1.596-3.275-.75-4.864-2.176-4.864-4.358 0-2.58 2.37-4.526 5.514-4.526 1.647 0 3.024.496 4.604 1.66l.448.331-1.72 2.567-.491-.36c-1.367-1-2.07-1.177-3.041-1.177-1.258 0-2.205.569-2.205 1.325 0 .463 0 .942 2.399 1.548 3.145.79 5.096 1.825 5.096 4.535 0 2.574-2.296 4.372-5.587 4.372zm29.639-1.488l.195.616-2.911.699-.166-.517a4.43 4.43 0 0 0-.1-.284l-.047-.128c-1.187.802-2.17 1.1-3.479 1.1-2.973 0-5.215-2.167-5.215-5.042 0-3.07 2.34-5.3 5.564-5.3.972 0 1.761.194 2.648.68-.073-1.631-.785-2.246-2.546-2.246-.925 0-1.705.249-3.218 1.02l-.548.282-1.111-2.582.457-.265c1.402-.847 3.064-1.295 4.728-1.295 3.391 0 5.501 1.962 5.501 5.248v5.852c0 1.03-.017 1.475.248 2.162zm-6.006-1.457c1.51 0 2.603-.741 2.603-2.078 0-1.26-1.136-1.947-2.702-1.947h-.124c-1.326 0-2.404.772-2.404 2 0 1.39 1.007 2.025 2.627 2.025zm-30.358 1.457l.114.616-2.992.699-.167-.517a4.43 4.43 0 0 0-.1-.284 2.963 2.963 0 0 1-.047-.128c-1.186.802-2.17 1.1-3.479 1.1-2.971 0-5.213-2.167-5.213-5.042 0-3.07 2.34-5.3 5.564-5.3.971 0 1.76.194 2.648.68-.071-1.631-.782-2.246-2.543-2.246-.924 0-1.7.249-3.213 1.02l-.537.282-1.092-2.582.5-.265c1.4-.847 3.145-1.295 4.809-1.295 3.39 0 5.666 1.962 5.666 5.248v5.852c0 1.03-.183 1.475.082 2.162zm-6.173-1.457c1.507 0 2.603-.741 2.603-2.078 0-1.26-1.137-1.947-2.702-1.947h-.124c-1.327 0-2.405.772-2.405 2 0 1.39 1.007 2.025 2.628 2.025z"/>
        <path fill="#69BE28" d="M166.686 13.738h-.002c-13.356.004-22.885 5.164-18.535 18.586l.001.004h.001c13.129 4.62 18.338-5 18.535-18.587v-.003zm-14.065 12.646c.914.093 1.581.923 1.489 1.853-.092.93-.907 1.609-1.822 1.514-.914-.094-1.58-.923-1.488-1.854.092-.928.908-1.607 1.821-1.513z"/>
        <path fill="#D10074" d="M140.788 0c8.976.002 15.38 3.471 12.457 12.49l-.001.003c-8.822 3.104-12.323-3.36-12.456-12.49V0zm9.45 8.498a1.133 1.133 0 0 0-1 1.246c.061.625.61 1.08 1.223 1.018a1.133 1.133 0 0 0 1-1.246 1.122 1.122 0 0 0-1.223-1.018z"/>
    </g>
</svg>
